<?xml version="1.0" standalone="no"?>
<!DOCTYPE svg PUBLIC "-//W3C//DTD SVG 20010904//EN"
 "http://www.w3.org/TR/2001/REC-SVG-20010904/DTD/svg10.dtd">
<svg version="1.0" xmlns="http://www.w3.org/2000/svg"
 width="400.000000pt" height="400.000000pt" viewBox="0 0 400.000000 400.000000"
 preserveAspectRatio="xMidYMid meet">
<metadata>
Created by potrace 1.11, written by Peter Selinger 2001-2013
</metadata>
<g transform="translate(0.000000,400.000000) scale(0.100000,-0.100000)"
fill="#000000" stroke="none">
<path d="M1839 3836 c-2 -2 -29 -6 -59 -10 -441 -45 -883 -285 -1193 -647
-168 -195 -333 -531 -382 -774 -33 -168 -37 -206 -40 -380 -4 -268 30 -459
124 -701 90 -231 240 -457 425 -637 275 -268 606 -437 987 -503 109 -19 414
-27 504 -13 33 5 75 12 93 14 480 71 941 366 1225 783 59 88 62 93 127 222 90
178 154 393 178 595 9 79 8 377 -1 440 -5 28 -10 61 -12 75 -16 122 -85 346
-147 476 -64 137 -174 309 -266 417 -157 184 -399 368 -625 475 -137 65 -365
135 -482 148 -27 3 -57 8 -65 11 -17 6 -385 14 -391 9z"/>
</g>
</svg>
